<svg width="212" height="63" viewBox="0 0 212 63" fill="none" xmlns="http://www.w3.org/2000/svg">
<path d="M39.403 11.79C37.575 10.488 35.332 9.721 32.908 9.721C26.762 9.721 21.782 14.648 21.782 20.723C21.782 26.8 26.763 31.726 32.908 31.726C35.422 31.726 37.742 30.901 39.604 29.509C40.313 28.921 41.075 27.62 40.885 26.239C41.916 27.159 42.82 30.014 41.995 31.237C40.741 32.776 39.126 33.432 37.721 33.954C36.224 34.507 34.597 34.781 32.908 34.781C25.071 34.781 18.717 28.499 18.717 20.748C18.717 12.997 25.071 6.716 32.908 6.716C35.544 6.716 38.012 7.427 40.128 8.666C40.742 8.969 41.457 9.421 42.084 9.817C42.711 10.213 43.924 10.278 44.17 10.167L40.132 14.046C40.084 13.578 40.355 12.983 39.569 11.976L39.403 11.79Z" fill="#9E0B0F"/>
<path d="M48.876 34.782H41.091C43.884 33.735 44.222 32.508 45.279 30.011C46.337 27.515 53.529 11.14 53.529 11.14C54.006 10.087 54.101 8.64299 52.482 8.16699H59.193C57.987 8.76999 57.94 10.071 58.21 10.737C58.48 11.403 66.307 29.713 66.942 30.898C67.576 32.084 68.507 33.791 70.664 34.441V34.647H63.159V34.41C63.699 34.299 64.286 33.427 63.969 32.458C63.654 31.491 56.118 13.8 56.118 13.8H55.752L50.04 26.97H57.561C58.386 26.921 59.735 26.335 60.385 24.907H60.56C60.56 24.907 60.67 27.383 60.369 28.081C60.059 28.798 59.544 29.968 57.625 30.063H50.469C49.628 30.111 48.153 30.65 47.868 32.016C47.454 33.841 48.506 34.613 48.876 34.782Z" fill="#9E0B0F"/>
<path d="M19.437 40.723V36.869H20.819C21.101 36.869 21.326 36.908 21.496 36.985C21.666 37.064 21.8 37.183 21.896 37.345C21.992 37.507 22.041 37.677 22.041 37.855C22.041 38.019 21.998 38.174 21.912 38.32C21.827 38.466 21.698 38.582 21.525 38.673C21.748 38.741 21.92 38.858 22.04 39.023C22.159 39.189 22.219 39.382 22.219 39.607C22.219 39.788 22.182 39.956 22.11 40.111C22.038 40.265 21.948 40.385 21.84 40.469C21.733 40.554 21.598 40.617 21.436 40.66C21.275 40.704 21.077 40.723 20.842 40.723H19.437ZM19.925 38.488H20.721C20.937 38.488 21.093 38.473 21.186 38.443C21.31 38.404 21.403 38.339 21.466 38.251C21.529 38.163 21.56 38.049 21.56 37.914C21.56 37.787 21.531 37.674 21.473 37.576C21.414 37.479 21.331 37.413 21.222 37.376C21.114 37.341 20.927 37.323 20.662 37.323H19.926V38.488H19.925ZM19.925 40.268H20.842C21 40.268 21.11 40.262 21.174 40.249C21.286 40.229 21.38 40.194 21.455 40.145C21.53 40.095 21.593 40.025 21.641 39.93C21.689 39.836 21.713 39.728 21.713 39.606C21.713 39.462 21.679 39.337 21.609 39.231C21.54 39.126 21.442 39.05 21.317 39.008C21.192 38.964 21.013 38.944 20.778 38.944H19.926V40.268H19.925Z" fill="#4D4D4F"/>
<path d="M24.295 40.723L25.71 36.869H26.235L27.742 40.723H27.187L26.757 39.556H25.217L24.813 40.723H24.295ZM25.358 39.141H26.607L26.222 38.073C26.105 37.749 26.017 37.482 25.961 37.274C25.914 37.52 25.848 37.765 25.762 38.01L25.358 39.141Z" fill="#4D4D4F"/>
<path d="M29.938 40.723V36.869H30.438L32.373 39.896V36.869H32.84V40.723H32.34L30.406 37.694V40.723H29.938Z" fill="#4D4D4F"/>
<path d="M37.193 39.211V38.76L38.754 38.755V40.188C38.513 40.387 38.266 40.538 38.012 40.639C37.758 40.739 37.496 40.789 37.228 40.789C36.866 40.789 36.538 40.708 36.242 40.545C35.947 40.384 35.723 40.149 35.572 39.843C35.423 39.534 35.347 39.194 35.347 38.814C35.347 38.439 35.422 38.088 35.572 37.763C35.722 37.439 35.938 37.198 36.219 37.038C36.5 36.88 36.824 36.802 37.191 36.802C37.457 36.802 37.697 36.847 37.913 36.937C38.128 37.029 38.297 37.154 38.42 37.316C38.542 37.478 38.635 37.687 38.698 37.948L38.259 38.073C38.204 37.877 38.135 37.721 38.053 37.61C37.971 37.498 37.853 37.408 37.7 37.339C37.549 37.273 37.379 37.238 37.194 37.238C36.971 37.238 36.778 37.274 36.616 37.344C36.454 37.415 36.322 37.508 36.223 37.624C36.123 37.739 36.046 37.866 35.991 38.006C35.897 38.243 35.85 38.503 35.85 38.781C35.85 39.126 35.907 39.412 36.02 39.644C36.133 39.874 36.297 40.047 36.514 40.16C36.731 40.273 36.959 40.328 37.202 40.328C37.412 40.328 37.619 40.286 37.82 40.2C38.021 40.114 38.173 40.025 38.277 39.928V39.21H37.193V39.211Z" fill="#4D4D4F"/>
<path d="M41.262 40.723V36.869H41.75V40.268H43.564V40.723H41.262Z" fill="#4D4D4F"/>
<path d="M45.55 40.723L46.965 36.869H47.489L48.997 40.723H48.441L48.011 39.556H46.471L46.067 40.723H45.55ZM46.613 39.141H47.862L47.477 38.073C47.36 37.749 47.272 37.482 47.216 37.274C47.169 37.52 47.103 37.765 47.018 38.01L46.613 39.141Z" fill="#4D4D4F"/>
<path d="M51.197 40.723V36.869H52.465C52.752 36.869 52.97 36.888 53.121 36.924C53.332 36.976 53.512 37.067 53.661 37.199C53.856 37.372 54.001 37.592 54.098 37.858C54.194 38.126 54.242 38.431 54.242 38.774C54.242 39.068 54.209 39.328 54.143 39.553C54.079 39.78 53.994 39.967 53.892 40.114C53.79 40.264 53.679 40.381 53.558 40.466C53.437 40.55 53.289 40.614 53.119 40.659C52.947 40.702 52.75 40.723 52.527 40.723H51.197ZM51.685 40.268H52.471C52.714 40.268 52.904 40.246 53.043 40.199C53.181 40.151 53.291 40.085 53.373 39.998C53.488 39.877 53.579 39.714 53.643 39.511C53.708 39.306 53.741 39.059 53.741 38.768C53.741 38.364 53.677 38.055 53.551 37.838C53.425 37.621 53.271 37.477 53.09 37.402C52.96 37.35 52.75 37.324 52.461 37.324H51.687V40.268H51.685Z" fill="#4D4D4F"/>
<path d="M56.733 40.723V36.869H59.397V37.324H57.221V38.505H59.259V38.957H57.221V40.269H59.482V40.724H56.733V40.723Z" fill="#4D4D4F"/>
<path d="M61.8 39.484L62.26 39.443C62.282 39.635 62.332 39.794 62.412 39.917C62.491 40.041 62.615 40.142 62.782 40.217C62.949 40.293 63.138 40.332 63.347 40.332C63.534 40.332 63.697 40.303 63.839 40.245C63.982 40.187 64.088 40.108 64.158 40.007C64.227 39.905 64.262 39.796 64.262 39.678C64.262 39.556 64.229 39.449 64.161 39.36C64.093 39.271 63.984 39.195 63.829 39.133C63.731 39.092 63.512 39.029 63.173 38.944C62.835 38.859 62.598 38.779 62.463 38.704C62.287 38.607 62.156 38.489 62.07 38.346C61.984 38.202 61.941 38.042 61.941 37.866C61.941 37.672 61.994 37.49 62.099 37.32C62.205 37.151 62.36 37.023 62.561 36.934C62.764 36.846 62.99 36.803 63.237 36.803C63.51 36.803 63.751 36.849 63.959 36.942C64.167 37.034 64.328 37.17 64.44 37.348C64.552 37.526 64.612 37.729 64.621 37.955L64.153 37.992C64.129 37.748 64.043 37.564 63.898 37.44C63.753 37.314 63.539 37.252 63.256 37.252C62.962 37.252 62.747 37.308 62.612 37.421C62.477 37.535 62.409 37.671 62.409 37.831C62.409 37.97 62.457 38.082 62.553 38.173C62.646 38.262 62.892 38.354 63.287 38.448C63.683 38.54 63.955 38.623 64.102 38.693C64.317 38.797 64.475 38.926 64.577 39.086C64.679 39.244 64.73 39.428 64.73 39.635C64.73 39.841 64.674 40.033 64.562 40.215C64.45 40.395 64.288 40.537 64.079 40.639C63.869 40.739 63.633 40.789 63.37 40.789C63.037 40.789 62.757 40.737 62.532 40.638C62.306 40.535 62.131 40.381 62.002 40.178C61.875 39.974 61.806 39.742 61.8 39.484Z" fill="#4D4D4F"/>
<path d="M67.225 40.723V36.869H67.712V38.453H69.627V36.869H70.114V40.723H69.627V38.907H67.712V40.723H67.225Z" fill="#4D4D4F"/>
<path d="M77.141 47.104V0.0559998" stroke="#4D4D4F" stroke-width="1.62" stroke-miterlimit="10"/>
<path d="M118.688 4.205H85.16V42.877H118.688V4.205Z" fill="#9E0B0F"/>
<path d="M102.023 7.8C102.302 7.802 102.248 8.37 102.558 8.453C102.864 8.538 103.509 8.283 103.678 8.598C103.427 8.623 101.969 10.111 101.969 10.111C101.969 10.111 100.928 8.825 100.343 8.623C100.429 8.339 100.963 8.394 101.466 8.481C101.661 8.454 101.713 7.795 102.023 7.8Z" fill="white"/>
<path d="M87.491 33.744H93.887V35.229L109.142 35.236V33.755H115.907L114.413 35.266L115.881 37.06H111.018V38.794H92.012L92.007 37.06H87.492L88.6 35.256L87.491 33.744ZM110.604 38.463V35.577H92.353L92.362 38.481L110.604 38.463ZM111.043 35.229L111.052 36.766H115.201L113.987 35.229L115.22 33.99H109.486L111.043 35.229ZM109.461 35.229H110.604L109.461 34.312V35.229ZM93.596 35.236V34.353L92.776 35.229L93.596 35.236ZM91.991 35.497L93.595 33.99H88.007L89.047 35.229L88.049 36.766H91.99V35.497H91.991ZM96.327 36.757C96.144 36.757 95.937 36.886 95.937 37.087C95.937 37.26 96.018 37.403 96.202 37.403C96.361 37.403 96.481 37.336 96.481 37.159C96.481 37.113 96.475 37.056 96.449 37.012C96.465 37.012 96.481 37.007 96.502 37.007C96.637 37.007 96.732 37.179 96.732 37.296C96.732 37.495 96.502 37.637 96.326 37.637C95.866 37.637 95.648 37.118 95.516 36.746L95.367 36.69C95.464 37.159 95.762 37.942 96.326 37.942C96.624 37.942 96.909 37.71 96.909 37.393C96.91 37.057 96.664 36.757 96.327 36.757ZM96.922 36.462H96.882H95.148H95.096H93.483C93.557 36.539 93.759 36.762 93.848 36.79C94.087 36.866 94.225 36.717 94.268 37.087C94.237 37.143 94.08 37.357 94.025 37.357C93.958 37.357 93.909 37.191 93.899 37.137L93.746 37.284C93.805 37.417 93.942 37.635 94.103 37.635C94.387 37.635 94.468 37.158 94.645 37.158C94.842 37.158 94.848 37.522 94.848 37.652C94.848 37.766 94.835 37.873 94.835 37.98L95.038 38.209V36.677H95.311H95.358H97.098H97.138H97.478C97.37 36.825 97.285 36.936 97.285 37.128C97.285 37.336 97.392 37.527 97.392 37.737C97.392 38.069 97.074 38.062 97.074 38.135C97.074 38.191 97.132 38.218 97.178 38.218C97.393 38.218 97.642 37.95 97.642 37.737C97.642 37.457 97.546 37.179 97.546 36.899C97.546 36.733 97.669 36.667 97.814 36.667C97.86 36.667 97.9 36.671 97.939 36.671L97.718 36.461H96.922V36.462ZM94.565 36.888C94.476 36.888 94.445 36.977 94.393 37.033C94.399 36.835 94.39 36.795 94.236 36.679H94.826L94.831 37.107C94.744 37.023 94.716 36.888 94.565 36.888ZM102.186 38.072H102.189H102.186ZM102.167 37.711C102.075 37.711 101.992 37.801 101.992 37.899C101.992 37.998 102.091 38.073 102.189 38.073C102.284 38.073 102.373 37.996 102.373 37.899C102.373 37.792 102.265 37.711 102.167 37.711ZM101.477 36.462H101.425H101.37L101.294 36.264L101.204 36.197C101.192 36.247 101.186 36.303 101.186 36.356C101.186 36.54 101.302 36.708 101.302 36.892L101.299 36.902C101.243 36.755 101.192 36.463 100.976 36.463H100.77H100.668H99.993H99.941H98.474L98.682 36.679H99.691V37.353C99.624 37.129 99.416 36.931 99.172 36.931C98.973 36.931 98.782 37.076 98.782 37.289C98.782 37.49 98.902 37.588 99.096 37.588C99.225 37.588 99.332 37.521 99.332 37.38C99.332 37.312 99.264 37.228 99.209 37.19L99.23 37.18C99.567 37.18 99.792 37.729 99.792 38.017C99.792 38.041 99.789 38.071 99.783 38.095L99.9 38.241V36.678H100.152H100.207H100.529C100.425 36.826 100.339 36.937 100.339 37.129C100.339 37.337 100.444 37.528 100.444 37.738C100.444 38.07 100.127 38.063 100.127 38.136C100.127 38.192 100.185 38.219 100.231 38.219C100.444 38.219 100.695 37.951 100.695 37.738C100.695 37.458 100.606 37.18 100.606 36.9C100.606 36.734 100.722 36.668 100.867 36.668H100.885L100.888 36.672C101.137 36.651 101.177 36.805 101.177 37.019V38.016L101.383 38.227V36.665H101.634C101.797 36.8 101.876 36.754 102.159 36.906C102.006 37.015 101.867 37.142 101.732 37.273L101.953 37.55C102.527 37.58 102.484 37.875 102.812 38.219V36.677H103.097L102.873 36.461H101.477V36.462ZM102.609 37.685C102.498 37.518 102.329 37.394 102.145 37.331C102.25 37.208 102.379 37.106 102.49 36.997C102.395 36.883 102.296 36.772 102.177 36.679H102.61V37.685H102.609ZM105.325 36.679H105.596L105.394 36.465C105.289 36.444 105.26 36.419 105.252 36.315L105.111 36.215V36.39C105.105 36.624 105.16 36.853 105.193 37.087C105.102 36.83 104.875 36.483 104.57 36.483C104.362 36.483 103.966 36.671 103.966 36.92C103.966 36.989 104.064 37.06 104.129 37.06C104.194 37.06 104.246 37.012 104.307 37.012C104.359 37.012 104.381 37.075 104.381 37.118C104.381 37.202 104.251 37.296 104.2 37.351L104.48 37.453L104.982 36.958C105.031 36.99 105.065 37.037 105.102 37.085V37.755C104.765 37.445 104.016 37.717 104.016 37.303C104.016 37.275 104.022 37.25 104.037 37.226L103.933 37.134C103.915 37.191 103.866 37.327 103.866 37.385C103.866 37.67 104.127 37.846 104.388 37.846C104.514 37.846 104.647 37.831 104.771 37.832C104.968 37.834 105.05 37.881 105.103 37.947V37.96C105.112 37.971 105.121 37.98 105.13 37.992C105.183 38.076 105.204 38.184 105.33 38.276H105.336C105.336 38.194 105.333 38.143 105.323 38.093L105.325 36.679ZM104.807 36.79L104.516 37.071C104.521 36.965 104.432 36.852 104.332 36.85C104.393 36.746 104.512 36.707 104.62 36.707C104.689 36.708 104.76 36.734 104.807 36.79ZM109.339 36.462H107.575H107.515H107.417L107.367 36.356C107.495 36.127 107.607 36.002 107.874 36.002C108.212 36.002 108.458 36.217 108.719 36.407L108.654 36.219C108.372 35.989 108.115 35.781 107.735 35.781C107.464 35.781 107.136 36.002 107.136 36.296C107.136 36.369 107.205 36.422 107.248 36.466L106.852 36.463L106.856 36.468C106.822 36.468 106.793 36.466 106.765 36.453L106.73 36.386L106.747 36.306L106.589 36.17L106.582 36.386C106.582 36.602 106.615 36.809 106.668 37.017C106.549 36.716 106.416 36.48 106.06 36.48C105.828 36.48 105.573 36.66 105.573 36.905C105.573 36.998 105.656 37.131 105.755 37.131C105.87 37.131 105.94 37.006 106.05 37.006C106.078 37.006 106.132 37.021 106.132 37.059C106.132 37.116 105.853 37.354 105.794 37.4L106.015 37.627C106.135 37.491 106.319 37.306 106.319 37.104C106.319 36.945 106.14 36.863 106.009 36.863C105.967 36.863 105.929 36.863 105.889 36.875C105.946 36.771 106.05 36.727 106.171 36.727C106.475 36.727 106.569 37.118 106.569 37.361C106.569 37.572 106.564 37.785 106.564 37.995L106.793 38.224V36.683H107.106L107.102 36.682H107.268L107.265 38.001L107.477 38.198V36.681H107.733H107.781H109.555L109.339 36.462ZM108.747 36.757C108.559 36.757 108.359 36.886 108.359 37.087C108.359 37.26 108.435 37.403 108.621 37.403C108.78 37.403 108.904 37.336 108.904 37.159C108.904 37.113 108.898 37.056 108.87 37.012C108.889 37.012 108.904 37.007 108.919 37.007C109.057 37.007 109.148 37.179 109.148 37.296C109.148 37.495 108.916 37.637 108.745 37.637C108.288 37.637 108.069 37.118 107.932 36.746L107.785 36.69C107.886 37.159 108.184 37.942 108.749 37.942C109.046 37.942 109.338 37.71 109.338 37.393C109.336 37.057 109.088 36.757 108.747 36.757Z" fill="white"/>
<path d="M101.52 11.137C101.52 11.137 101.858 10.595 102.106 10.994C102.241 11.207 102.222 11.479 101.826 11.508C101.686 11.515 101.55 11.337 101.52 11.137Z" fill="white"/>
<path d="M102.609 10.309L102.415 10.112C102.415 10.112 103.342 9.142 103.645 9.368C103.37 9.539 102.609 10.309 102.609 10.309Z" fill="white"/>
<path d="M101.424 10.289L101.62 10.087C101.62 10.087 100.69 9.12101 100.383 9.35301C100.667 9.52101 101.424 10.289 101.424 10.289Z" fill="white"/>
<path d="M115.766 23.654C115.931 23.628 116.047 23.798 116.047 23.798C116.047 23.798 116.047 25.17 115.008 26.137C114.756 26.022 114.815 26.054 114.756 25.824C115.794 25.027 115.624 23.856 115.766 23.654ZM103.907 11.678C103.907 11.678 102.004 10.938 103.907 10.595C104.085 10.586 104.414 11.222 104.64 11.078C104.975 10.907 104.555 10.707 104.609 10.595C104.692 10.567 104.92 10.48 105.481 11.137C105.554 11.228 105.395 11.648 105.674 11.707C106.094 11.679 105.843 11.337 106.184 11.479C106.684 11.678 106.601 12.733 106.601 12.733C106.601 12.733 106.714 13.218 107.16 12.762C107.259 12.701 108.898 16.525 112.991 14.845C113.248 14.74 113.581 15.045 114.193 14.959C114.221 14.845 114.249 14.361 113.998 14.276C113.746 14.187 114.222 13.815 114.477 13.872C114.728 13.93 115.234 14.331 114.924 14.472C114.759 14.617 114.924 14.9 115.093 14.959C115.261 15.016 115.347 14.644 115.541 14.845C115.74 15.045 115.623 16.555 113.72 16.81C113.41 16.901 114.166 17.21 114.028 17.298C113.887 17.384 113.104 17.922 113.298 19.351C113.322 19.515 113.492 20.576 113.492 20.576C113.492 20.576 112.961 21.378 113.666 22.175C113.885 22.357 114.391 22.264 114.756 22.576C114.839 22.66 114.982 23.688 114.698 23.688C114.698 23.714 114.335 23.002 113.552 23.882C113.262 24.252 112.822 24.346 113.692 25.799C113.698 26.061 113.747 27.678 113.747 27.678L113.412 28.31C113.412 28.31 113.412 28.565 114.168 28.163C114.295 28.098 114.647 29.249 113.44 30.13C113.314 30.25 114.029 31.073 114.869 30.016C115.109 29.767 115.288 28.251 114.815 27.824C114.673 27.698 115.318 27.651 115.543 27.308C115.53 27.153 115.052 27.236 114.632 26.776C114.012 26.206 114.392 25.514 114.392 25.514C114.392 25.514 115.681 24.567 115.288 22.889C115.266 22.737 115.263 22.146 115.263 22.146C115.263 22.146 116.605 21.438 115.932 19.806C115.843 19.595 114.761 18.324 114.761 17.811C114.898 17.7 115.063 17.585 115.063 17.585L115.124 17.755C115.124 17.755 115.544 18.039 115.457 16.987C116.179 15.556 116.296 14.961 115.852 14.39C115.997 14.279 116.275 14.077 116.275 14.077C116.275 14.077 115.661 12.555 113.979 13.221C113.495 13.204 113.694 12.222 113.246 12.248C112.935 12.308 113.246 12.705 113.107 12.793C112.963 12.881 112.49 12.591 112.321 12.681C112.154 12.764 113.107 13.792 112.212 14.534C111.663 14.318 112.378 13.534 111.816 13.476C111.423 13.449 111.733 14.162 111.59 14.279C111.453 14.39 110.753 15.131 110.415 14.76C110.293 14.627 110.978 14.05 110.978 14.05L110.753 13.819C110.753 13.819 109.882 14.475 109.627 14.335C109.375 14.191 109.322 14.051 109.322 14.051C109.322 14.051 109.882 13.736 110.018 12.85C110.041 12.738 110.977 12.594 110.801 12.081C110.565 11.804 110.218 12.565 110.018 12.452C109.909 12.624 109.462 11.567 108.23 12.396C108.117 12.265 107.448 11.87 106.987 11.372C106.321 10.505 105.303 9.81801 104.36 9.93901C103.848 10.009 102.792 10.257 102.761 11.081C102.791 11.307 103.431 12.246 103.907 11.678ZM113.721 24.315C113.775 24.284 114.167 24.458 113.721 24.566C113.695 24.669 113.775 24.8 113.637 24.8C113.552 24.686 113.44 24.513 113.44 24.513C113.44 24.513 113.467 24.345 113.721 24.315ZM114.839 20.377C114.422 20.49 114.312 19.949 114.673 19.834C115.035 19.723 115.262 20.26 114.839 20.377ZM115.008 21.378C114.729 21.402 114.729 20.949 114.868 20.949C115.007 20.949 115.287 21.348 115.008 21.378ZM115.624 21.005C115.061 21.03 115.511 19.778 115.511 19.778C115.511 19.778 116.188 20.979 115.624 21.005ZM114.335 19.065C114.335 19.065 113.492 18.352 114.193 17.838C114.698 17.868 114.335 19.065 114.335 19.065ZM109.147 12.305C108.87 12.504 109.12 12.733 109.345 12.679C109.57 12.62 109.435 12.105 109.147 12.305ZM108.817 13.815C108.685 14.091 107.525 13.331 107.553 12.305C107.77 12.359 108.057 12.589 108.28 13.105C108.56 12.762 109.189 13.033 108.817 13.815Z" fill="white"/>
<path d="M90.481 31.112C90.481 31.112 90.812 30.574 91.067 30.97C91.202 31.187 91.177 31.455 90.787 31.486C90.647 31.496 90.505 31.312 90.481 31.112Z" fill="white"/>
<path d="M91.448 31.808C91.448 31.808 91.788 31.266 92.043 31.664C92.176 31.879 92.153 32.148 91.758 32.18C91.616 32.186 91.479 32.006 91.448 31.808Z" fill="white"/>
<path d="M92.329 32.401C92.329 32.401 92.663 31.857 92.914 32.258C93.049 32.471 93.027 32.74 92.638 32.77C92.497 32.781 92.353 32.603 92.329 32.401Z" fill="white"/>
<path d="M93.589 32.996C93.589 32.996 93.93 32.453 94.178 32.852C94.313 33.066 94.291 33.337 93.898 33.363C93.758 33.377 93.62 33.194 93.589 32.996Z" fill="white"/>
<path d="M94.664 33.392C94.664 33.392 95.001 32.85 95.253 33.251C95.388 33.464 95.363 33.733 94.971 33.762C94.835 33.773 94.691 33.589 94.664 33.392Z" fill="white"/>
<path d="M95.735 33.645C95.735 33.645 96.076 33.102 96.327 33.5C96.466 33.721 96.441 33.987 96.045 34.019C95.903 34.027 95.769 33.843 95.735 33.645Z" fill="white"/>
<path d="M96.812 34.141C96.812 34.141 97.147 33.599 97.399 33.999C97.533 34.212 97.509 34.484 97.119 34.513C96.972 34.521 96.836 34.34 96.812 34.141Z" fill="white"/>
<path d="M98.077 34.337C98.077 34.337 98.412 33.794 98.662 34.196C98.8 34.411 98.776 34.68 98.383 34.71C98.239 34.719 98.101 34.535 98.077 34.337Z" fill="white"/>
<path d="M99.144 34.437C99.144 34.437 99.482 33.895 99.733 34.295C99.869 34.51 99.847 34.779 99.451 34.808C99.31 34.815 99.172 34.635 99.144 34.437Z" fill="white"/>
<path d="M100.313 34.535C100.313 34.535 100.648 33.995 100.903 34.395C101.039 34.611 101.013 34.88 100.624 34.909C100.48 34.916 100.341 34.733 100.313 34.535Z" fill="white"/>
<path d="M101.385 34.635C101.385 34.635 101.716 34.095 101.974 34.493C102.106 34.71 102.085 34.977 101.688 35.006C101.55 35.018 101.413 34.833 101.385 34.635Z" fill="white"/>
<path d="M102.649 34.535C102.649 34.535 102.98 33.995 103.237 34.395C103.369 34.611 103.348 34.88 102.954 34.909C102.815 34.916 102.674 34.733 102.649 34.535Z" fill="white"/>
<path d="M103.619 34.437C103.619 34.437 103.96 33.895 104.211 34.295C104.346 34.51 104.321 34.779 103.928 34.808C103.788 34.815 103.653 34.635 103.619 34.437Z" fill="white"/>
<path d="M104.689 34.237C104.689 34.237 105.027 33.696 105.278 34.098C105.414 34.312 105.393 34.58 104.999 34.611C104.855 34.619 104.718 34.437 104.689 34.237Z" fill="white"/>
<path d="M105.856 34.042C105.856 34.042 106.197 33.497 106.447 33.899C106.583 34.113 106.563 34.382 106.167 34.411C106.028 34.421 105.89 34.241 105.856 34.042Z" fill="white"/>
<path d="M107.028 33.744C107.028 33.744 107.362 33.197 107.614 33.598C107.752 33.819 107.728 34.084 107.339 34.113C107.194 34.125 107.054 33.944 107.028 33.744Z" fill="white"/>
<path d="M108.099 33.351C108.099 33.351 108.436 32.807 108.686 33.206C108.821 33.42 108.799 33.69 108.407 33.721C108.266 33.729 108.126 33.549 108.099 33.351Z" fill="white"/>
<path d="M109.17 32.953C109.17 32.953 109.505 32.407 109.757 32.809C109.891 33.023 109.871 33.291 109.478 33.323C109.336 33.331 109.195 33.151 109.17 32.953Z" fill="white"/>
<path d="M110.239 32.358C110.239 32.358 110.576 31.812 110.827 32.215C110.966 32.43 110.938 32.7 110.546 32.727C110.403 32.739 110.267 32.559 110.239 32.358Z" fill="white"/>
<path d="M111.306 31.863C111.306 31.863 111.647 31.318 111.898 31.719C112.032 31.933 112.009 32.203 111.617 32.23C111.475 32.244 111.337 32.064 111.306 31.863Z" fill="white"/>
<path d="M112.279 31.169C112.279 31.169 112.62 30.628 112.868 31.027C113.007 31.242 112.979 31.514 112.589 31.54C112.448 31.55 112.31 31.366 112.279 31.169Z" fill="white"/>
<path d="M89.021 25.825C88.962 26.055 89.021 26.023 88.769 26.138C87.732 25.171 87.732 23.799 87.732 23.799C87.732 23.799 87.838 23.629 88.008 23.655C88.151 23.856 87.98 25.027 89.021 25.825ZM101.013 11.078C100.986 10.255 99.926 10.007 99.421 9.936C98.476 9.814 97.456 10.501 96.788 11.369C96.333 11.867 95.661 12.267 95.552 12.393C94.317 11.563 93.87 12.621 93.756 12.449C93.562 12.562 93.213 11.801 92.974 12.078C92.806 12.59 93.737 12.734 93.756 12.847C93.897 13.734 94.459 14.047 94.459 14.047C94.459 14.047 94.4 14.188 94.148 14.331C93.896 14.473 93.027 13.816 93.027 13.816L92.804 14.046C92.804 14.046 93.485 14.625 93.365 14.757C93.027 15.128 92.328 14.387 92.187 14.276C92.045 14.159 92.352 13.446 91.963 13.473C91.401 13.533 92.116 14.314 91.567 14.531C90.671 13.79 91.625 12.762 91.46 12.678C91.291 12.589 90.812 12.878 90.671 12.79C90.533 12.702 90.839 12.304 90.533 12.245C90.085 12.219 90.284 13.201 89.803 13.218C88.118 12.552 87.51 14.074 87.51 14.074C87.51 14.074 87.79 14.276 87.927 14.387C87.479 14.958 87.602 15.554 88.317 16.984C88.237 18.036 88.652 17.752 88.652 17.752L88.71 17.582C88.71 17.582 88.88 17.697 89.021 17.808C89.021 18.321 87.931 19.592 87.838 19.803C87.171 21.435 88.516 22.143 88.516 22.143C88.516 22.143 88.511 22.733 88.489 22.886C88.093 24.565 89.383 25.511 89.383 25.511C89.383 25.511 89.76 26.203 89.146 26.773C88.723 27.233 88.247 27.15 88.237 27.305C88.462 27.648 89.106 27.695 88.962 27.821C88.489 28.249 88.67 29.764 88.903 30.013C89.744 31.071 90.462 30.247 90.339 30.127C89.13 29.246 89.48 28.095 89.609 28.16C90.364 28.562 90.364 28.307 90.364 28.307L90.026 27.675C90.026 27.675 90.075 26.058 90.085 25.793C90.955 24.342 90.512 24.249 90.223 23.878C89.437 22.998 89.076 23.71 89.076 23.684C88.796 23.684 88.937 22.661 89.021 22.572C89.383 22.26 89.893 22.355 90.112 22.171C90.812 21.375 90.281 20.572 90.281 20.572C90.281 20.572 90.456 19.513 90.478 19.347C90.671 17.918 89.888 17.38 89.744 17.294C89.609 17.206 90.364 16.897 90.055 16.806C88.152 16.551 88.039 15.041 88.238 14.841C88.431 14.643 88.517 15.012 88.682 14.955C88.852 14.896 89.021 14.613 88.852 14.468C88.542 14.326 89.048 13.926 89.3 13.868C89.552 13.811 90.03 14.183 89.779 14.272C89.525 14.356 89.552 14.84 89.579 14.955C90.199 15.041 90.527 14.736 90.786 14.841C94.878 16.522 96.518 12.698 96.614 12.758C97.062 13.214 97.176 12.729 97.176 12.729C97.176 12.729 97.093 11.674 97.597 11.475C97.934 11.333 97.682 11.674 98.1 11.703C98.383 11.643 98.223 11.224 98.299 11.133C98.86 10.476 99.082 10.563 99.168 10.591C99.222 10.703 98.802 10.903 99.14 11.074C99.361 11.218 99.689 10.582 99.87 10.591C101.776 10.929 99.87 11.674 99.87 11.674C100.341 12.246 100.982 11.307 101.013 11.078ZM90.339 24.513C90.339 24.513 90.223 24.685 90.14 24.796C90.001 24.796 90.084 24.668 90.054 24.566C89.609 24.458 90.001 24.284 90.054 24.315C90.312 24.345 90.339 24.513 90.339 24.513ZM89.106 19.834C89.468 19.949 89.354 20.49 88.937 20.378C88.516 20.26 88.737 19.723 89.106 19.834ZM88.903 20.949C89.051 20.949 89.047 21.403 88.768 21.378C88.489 21.348 88.769 20.949 88.903 20.949ZM88.263 19.778C88.263 19.778 88.71 21.033 88.152 21.005C87.593 20.979 88.263 19.778 88.263 19.778ZM89.578 17.838C90.281 18.353 89.437 19.065 89.437 19.065C89.437 19.065 89.076 17.868 89.578 17.838ZM94.428 12.679C94.655 12.734 94.907 12.504 94.625 12.305C94.348 12.105 94.204 12.62 94.428 12.679ZM95.492 13.105C95.72 12.589 96.011 12.364 96.226 12.305C96.253 13.331 95.089 14.092 94.961 13.815C94.587 13.033 95.213 12.762 95.492 13.105Z" fill="white"/>
<path d="M101.854 11.963C101.854 11.963 102.139 12.053 102.09 12.76C102.047 13.414 102.084 14.247 102.084 14.247C102.084 14.247 102.557 14.388 102.529 14.815C102.517 15.13 102.164 15.414 102.164 15.414C102.164 15.414 102.612 15.821 103.622 15.962C104.61 16.097 105.249 15.897 105.249 15.897L105.835 15.572L106.455 15.926L108.421 16.011C108.421 16.011 108.807 15.641 109.787 16.07C110.009 16.189 109.005 16.269 109.089 16.609C109.258 16.724 109.45 17.154 109.337 17.551C109.005 17.522 109.03 18.008 109.144 18.179C109.258 18.35 111.806 23.257 111.806 23.257C111.806 23.257 110.854 24.883 108.61 25.077C108.353 25.104 106.744 24.969 105.754 23.2C105.643 22.999 108.361 18.179 108.361 18.179C108.361 18.179 108.726 17.751 108.422 17.581C107.825 16.84 108.473 16.866 108.473 16.866C108.473 16.866 108.611 17.382 108.808 17.322C109.006 17.267 108.976 17.009 108.917 16.953C108.639 16.925 108.528 16.296 108.528 16.296C108.528 16.296 107.184 16.07 106.567 16.269C106.367 16.355 105.726 16.725 105.726 16.725L105.222 16.385C105.222 16.385 103.175 16.441 102.583 16.525C102.417 16.726 101.908 17.838 101.715 17.753C101.521 17.668 101.015 16.497 101.015 16.497L98.688 16.27L98.241 16.585L97.317 16.327C97.317 16.327 95.553 15.897 94.657 16.441C94.54 16.512 95.271 17.01 94.767 17.895C94.696 18.022 97.513 23.172 97.513 23.172C97.513 23.172 96.366 25.078 94.291 25.17C93.726 25.164 92.213 25.056 91.348 23.201C91.694 22.777 94.235 17.782 94.235 17.782C94.235 17.782 93.673 17.352 93.953 16.754C94.023 16.602 94.29 16.984 94.262 17.094C94.235 17.209 94.262 17.552 94.4 17.463C94.539 17.383 94.655 17.182 94.517 17.041C94.428 16.841 94.4 16.81 94.29 16.525C94.179 16.244 93.87 16.27 93.588 16.212C93.446 16.012 94.609 15.543 95.19 15.897C95.659 15.973 97.178 15.955 97.178 15.955L98.299 15.467L98.86 15.842C98.86 15.842 100.766 16.155 101.521 15.357C101.521 15.211 100.907 14.785 101.687 14.217C101.826 14.115 101.323 12.077 101.854 11.963ZM101.571 14.845C101.571 15.045 101.854 15.129 101.854 15.129C101.854 15.129 102.191 15.046 102.191 14.816C102.191 14.586 101.854 14.503 101.854 14.503C101.854 14.503 101.55 14.675 101.571 14.845ZM108.806 22.916L108.974 23.146L111.186 23.173L111.357 22.887L109.03 18.638L108.834 18.75L108.806 22.916ZM106.282 23.118L108.275 23.173L108.552 23.001V18.866L108.332 18.691L106.171 22.859L106.282 23.118ZM94.876 23.202L96.812 23.234C96.812 23.234 97.177 23.147 96.981 22.828C96.868 22.602 94.765 18.668 94.765 18.668L94.569 18.781C94.569 18.781 94.581 21.801 94.569 23.001C94.615 23.284 94.876 23.202 94.876 23.202ZM94.399 18.522H94.178C94.178 18.522 92.045 22.544 91.935 22.887C91.766 23.087 92.021 23.233 92.021 23.233C92.021 23.233 94.233 23.315 94.347 23.172C94.375 22.887 94.399 18.522 94.399 18.522ZM101.781 16.924L101.981 16.477H101.61L101.781 16.924Z" fill="white"/>
<path d="M101.799 32.784C100.344 32.883 100.7 31.426 100.54 31.334C98.156 29.934 95.062 30.713 94.737 30.73C93.445 30.817 93.673 29.445 93.673 29.445C93.673 29.445 97.009 24.912 97.092 24.71C97.595 24.569 98.66 24.598 98.66 24.598C98.66 24.598 100.707 22.633 100.707 22.487C100.707 22.343 95.637 17.209 95.637 17.209L95.882 16.979C95.882 16.979 100.927 22.033 101.155 22.033C101.379 22.033 104.377 19.012 104.55 18.894C106.342 17.611 107.149 16.591 107.546 16.953C107.576 17.726 106.993 18.036 106.986 18.181C106.956 19.096 106.439 18.804 106.341 19.011C106.006 19.694 105.052 19.75 105.022 19.865C104.601 20.75 104.129 20.35 104.129 20.835C103.595 20.949 102.309 22.102 102.052 22.175C101.546 22.318 101.775 22.634 101.775 22.634C101.775 22.634 103.533 24.458 103.622 24.458C106.341 24.458 106.366 24.742 106.366 24.742C106.366 24.742 109.925 29.415 109.957 29.761C110.07 30.847 109.07 30.914 108.774 30.847C105.416 30.075 102.84 31.561 102.84 31.561C102.84 31.561 103.011 32.707 101.799 32.784ZM101.858 25.511L101.775 30.302C101.775 30.302 101.974 30.618 102.33 30.243C103.055 30.219 105.16 29.617 105.808 29.648C106.254 29.617 109.004 29.648 109.23 29.648C109.257 29.617 109.48 29.531 109.308 29.249C109.148 28.958 106.311 25.027 106.311 25.027C106.311 25.027 104.574 24.489 104.236 24.797C104.135 24.9 104.236 25.288 104.715 25.2C105.047 25.227 104.549 25.685 104.911 25.685C105.276 25.685 105.779 25.599 106.035 25.685C105.896 25.855 105.416 25.912 105.416 25.912C105.416 25.912 105.022 26.23 106.061 26.056C106.318 26.047 106.09 26.312 106.09 26.312H105.47C105.47 26.312 105.47 27.053 103.988 25.855C103.899 25.782 103.228 25.112 103.089 24.996C102.641 24.659 101.858 25.511 101.858 25.511ZM97.399 26.279C97.49 25.813 98.045 25.081 98.325 24.912C97.985 24.569 97.232 24.94 97.232 24.94C97.232 24.94 94.148 29.273 94.12 29.393C94.093 29.507 94.261 29.568 94.399 29.559C97.791 29.393 100.519 30.101 100.676 30.19C101.545 30.677 101.519 30.243 101.519 30.243C101.519 30.243 101.636 25.995 101.461 25.566C99.857 24.604 99.42 24.941 99.42 24.941C99.42 24.941 98.465 26.509 98.097 26.624C97.732 26.738 97.502 26.638 97.399 26.279ZM97.905 26.994L97.986 26.798L96.868 26.738L96.754 26.909L97.905 26.994ZM96.612 27.282L96.564 27.45L97.763 27.481L97.873 27.311L96.612 27.282ZM96.082 28.049L97.595 28.106L97.68 27.905L96.112 27.879L96.082 28.049ZM95.882 28.564L97.626 28.68L97.709 28.479L95.883 28.42V28.564H95.882ZM98.745 28.933L99.838 29.188L100.086 29.022L98.887 28.68L98.745 28.933ZM98.887 28.42L100.12 28.564L100.176 28.366L98.97 28.162L98.887 28.42ZM99.052 27.851L100.12 28.022L100.255 27.794L99.107 27.622L99.052 27.851ZM99.273 27.252C99.273 27.252 100.086 27.221 100.369 27.509C100.455 27.392 100.399 27.423 100.51 27.282C100.12 27.024 99.36 27.108 99.36 27.108L99.273 27.252ZM99.305 26.824C99.305 26.824 100.228 26.766 100.54 26.994C100.593 26.909 100.54 26.966 100.623 26.824C100.399 26.482 99.273 26.57 99.273 26.57L99.305 26.824ZM99.559 26.279C99.559 26.279 100.428 26.229 100.652 26.338C100.708 26.279 100.677 26.311 100.765 26.168C100.48 25.94 99.531 26.11 99.531 26.11L99.559 26.279ZM99.696 25.738L100.676 25.765L100.651 25.565L99.724 25.51L99.696 25.738ZM102.529 25.738L103.257 25.653L103.45 25.511L103.285 25.401L103.149 25.511L102.529 25.541V25.738ZM102.529 26.279L102.811 26.254L102.977 26.169H103.449L103.48 25.965L102.867 25.995L102.781 26.138H102.581L102.529 26.279ZM102.895 26.853H103.174L103.286 26.684L104.099 26.738L104.016 26.571L103.175 26.54L103.089 26.654L102.896 26.684V26.853H102.895ZM102.867 27.481L103.087 27.422L103.9 27.45L104.183 27.252L104.152 27.078L103.818 27.252L102.919 27.282L102.867 27.481ZM103.005 28.022H103.426L103.708 27.851L104.408 27.826L104.377 27.623C104.377 27.623 103.764 27.562 103.646 27.709C103.54 27.851 103.005 27.851 103.005 27.851V28.022ZM103.401 28.451L104.459 28.42V28.224L103.48 28.25L103.401 28.451ZM103.036 29.164L104.515 28.878L104.491 28.71L103.087 28.962L103.036 29.164ZM105.159 26.966L106.675 26.994V26.738L105.159 26.766V26.966ZM105.528 27.509L106.986 27.45V27.282L105.498 27.311L105.528 27.509ZM105.748 28.134L107.183 28.162L107.237 27.935L105.835 27.966L105.748 28.134ZM106.117 28.68L107.376 28.709L107.516 28.564L106.089 28.502L106.117 28.68ZM99.696 24.542C100.086 24.77 101.265 25.255 101.519 25.288C101.967 25.2 102.64 24.712 102.667 24.542C102.301 24.059 101.347 23.057 101.123 23.088C100.906 23.136 99.755 24.284 99.696 24.542ZM97.874 26.254C98.344 26.457 99.305 24.659 99.305 24.458C99.305 24.254 97.469 26.074 97.874 26.254Z" fill="white"/>
<path d="M124.545 36.964C124.199 36.483 124.027 35.85 124.027 35.068C124.027 34.283 124.199 33.65 124.545 33.168C124.889 32.686 125.34 32.444 125.899 32.444C126.461 32.444 126.913 32.685 127.257 33.168C127.601 33.651 127.773 34.283 127.773 35.068C127.773 35.849 127.602 36.482 127.257 36.964C126.912 37.443 126.46 37.685 125.899 37.685C125.34 37.685 124.889 37.443 124.545 36.964ZM126.867 36.531C127.113 36.159 127.237 35.671 127.237 35.068C127.237 34.462 127.113 33.971 126.867 33.598C126.623 33.226 126.299 33.039 125.898 33.039C125.499 33.039 125.176 33.226 124.931 33.598C124.685 33.971 124.562 34.461 124.562 35.068C124.562 35.671 124.685 36.159 124.931 36.531C125.176 36.903 125.498 37.09 125.898 37.09C126.299 37.09 126.623 36.903 126.867 36.531Z" fill="#4D4D4F"/>
<path d="M128.443 37.549V32.579H131.103V32.877V33.174H128.962V34.693H130.836V34.991V35.289H128.962V37.55H128.703H128.443V37.549Z" fill="#4D4D4F"/>
<path d="M133.137 32.579H133.396H134.828C135.155 32.579 135.419 32.688 135.619 32.906C135.82 33.125 135.921 33.41 135.921 33.766C135.921 34.179 135.802 34.5 135.566 34.733C135.51 34.788 135.453 34.833 135.389 34.872C135.517 34.932 135.627 35.002 135.722 35.091C135.972 35.328 136.098 35.654 136.098 36.075C136.098 36.537 135.976 36.897 135.731 37.159C135.487 37.42 135.146 37.549 134.71 37.549H133.397H133.138V32.579H133.137ZM133.657 34.695H134.586C134.868 34.695 135.074 34.631 135.205 34.498C135.336 34.366 135.402 34.158 135.402 33.875C135.402 33.627 135.341 33.445 135.222 33.328C135.1 33.212 134.912 33.154 134.654 33.154H133.657V34.695ZM133.657 36.975H134.716C135.015 36.975 135.234 36.901 135.372 36.752C135.511 36.603 135.58 36.368 135.58 36.049C135.58 35.77 135.507 35.566 135.362 35.435C135.217 35.306 134.99 35.241 134.679 35.241H133.657V36.975Z" fill="#4D4D4F"/>
<path d="M137.839 32.579H138.134H138.432L139.814 37.549H139.534H139.255L138.862 36.11H137.328L136.925 37.549H136.657H136.388L137.839 32.579ZM137.492 35.514H138.703L138.11 33.31H138.111L137.492 35.514Z" fill="#4D4D4F"/>
<path d="M140.793 37.549H140.542H140.291V32.579H140.602H140.916L142.841 36.618V32.579H143.092H143.343V37.549H143.057H142.772L140.793 33.494V37.549Z" fill="#4D4D4F"/>
<path d="M145.795 37.685C145.26 37.685 144.83 37.444 144.501 36.964C144.171 36.483 144.007 35.85 144.007 35.068C144.007 34.283 144.175 33.65 144.511 33.168C144.848 32.686 145.287 32.444 145.831 32.444C146.251 32.444 146.613 32.597 146.914 32.9C147.218 33.206 147.395 33.594 147.446 34.072H146.944C146.896 33.742 146.771 33.487 146.574 33.308C146.375 33.128 146.116 33.039 145.8 33.039C145.424 33.039 145.122 33.226 144.89 33.602C144.659 33.976 144.543 34.468 144.543 35.077C144.543 35.723 144.654 36.223 144.879 36.577C145.102 36.931 145.418 37.109 145.826 37.109C146.222 37.109 146.542 36.921 146.786 36.547C146.824 36.489 146.859 36.426 146.89 36.36C146.932 36.272 146.967 36.149 146.995 35.991C147.024 35.834 147.039 35.683 147.039 35.543V35.481H145.835V34.914H147.517V37.543H147.194L147.069 36.918L147.04 36.963C146.724 37.445 146.309 37.685 145.795 37.685Z" fill="#4D4D4F"/>
<path d="M148.323 37.549V32.579H148.582H148.843V36.954H150.791V37.252V37.549H148.323Z" fill="#4D4D4F"/>
<path d="M152.42 32.579H152.715H153.013L154.394 37.549H154.116H153.836L153.444 36.11H151.91L151.507 37.549H151.239H150.968L152.42 32.579ZM152.074 35.514H153.283L152.691 33.31H152.692L152.074 35.514Z" fill="#4D4D4F"/>
<path d="M154.898 32.579H155.158H156.478C156.964 32.579 157.353 32.805 157.642 33.255C157.93 33.704 158.075 34.308 158.075 35.068C158.075 35.825 157.928 36.427 157.632 36.876C157.337 37.325 156.938 37.549 156.436 37.549H155.159H154.899V32.579H154.898ZM155.419 36.975H156.369C156.743 36.975 157.031 36.811 157.234 36.479C157.437 36.148 157.539 35.676 157.539 35.069C157.539 34.458 157.441 33.986 157.246 33.653C157.051 33.322 156.774 33.155 156.415 33.155H155.419V36.975Z" fill="#4D4D4F"/>
<path d="M158.791 37.549V32.579H161.602V32.877V33.174H159.312V34.693H161.404V34.991V35.289H159.312V36.955H161.63V37.253V37.55H158.791V37.549Z" fill="#4D4D4F"/>
<path d="M164.652 34.02C164.629 33.707 164.534 33.465 164.365 33.294C164.198 33.125 163.971 33.04 163.687 33.04C163.395 33.04 163.172 33.113 163.02 33.261C162.869 33.406 162.792 33.62 162.792 33.902C162.792 34.093 162.843 34.238 162.944 34.332C163.046 34.428 163.249 34.52 163.553 34.613L164.222 34.818C164.58 34.929 164.836 35.091 164.99 35.308C165.144 35.522 165.221 35.826 165.221 36.216C165.221 36.668 165.09 37.025 164.825 37.289C164.561 37.553 164.203 37.685 163.752 37.685C163.25 37.685 162.856 37.532 162.575 37.227C162.298 36.928 162.16 36.518 162.16 35.998V35.962H162.639C162.648 36.322 162.749 36.6 162.943 36.797C163.136 36.993 163.406 37.091 163.752 37.091C164.07 37.091 164.313 37.02 164.479 36.877C164.646 36.735 164.729 36.526 164.729 36.252C164.729 36.013 164.673 35.836 164.565 35.722C164.458 35.61 164.238 35.502 163.911 35.4L163.241 35.194C162.902 35.091 162.66 34.946 162.515 34.761C162.371 34.577 162.298 34.321 162.298 33.994C162.298 33.518 162.424 33.14 162.673 32.863C162.924 32.585 163.262 32.445 163.686 32.445C164.12 32.445 164.462 32.586 164.719 32.865C164.975 33.145 165.112 33.53 165.13 34.02H164.652Z" fill="#4D4D4F"/>
<path d="M165.887 32.579H166.147H166.409V34.619H168.414V32.579H168.673H168.935V37.549H168.676H168.414V35.214H166.409V37.549H166.149H165.887V32.579Z" fill="#4D4D4F"/>
<path d="M126.902 24.74H128.441L130.892 31.24H129.181L128.761 30.088H126.539L126.129 31.24H124.451L126.902 24.74ZM128.301 28.694L127.659 26.86L127.009 28.694H128.301Z" fill="#9E0B0F"/>
<path d="M130.924 28.032V28.012C130.924 26.132 132.216 24.657 133.96 24.657C135.137 24.657 135.893 25.21 136.403 26.003L135.202 27.045C134.873 26.585 134.494 26.29 133.942 26.29C133.135 26.29 132.568 27.054 132.568 27.995V28.013C132.568 28.982 133.135 29.738 133.942 29.738C134.544 29.738 134.897 29.425 135.243 28.954L136.443 29.913C135.901 30.754 135.169 31.37 133.893 31.37C132.248 31.369 130.924 29.958 130.924 28.032Z" fill="#9E0B0F"/>
<path d="M136.6 28.032V28.012C136.6 26.132 137.891 24.657 139.636 24.657C140.812 24.657 141.57 25.21 142.079 26.003L140.877 27.045C140.549 26.585 140.17 26.29 139.618 26.29C138.812 26.29 138.244 27.054 138.244 27.995V28.013C138.244 28.982 138.812 29.738 139.618 29.738C140.22 29.738 140.572 29.425 140.918 28.954L142.12 29.913C141.577 30.754 140.845 31.37 139.569 31.37C137.924 31.369 136.6 29.958 136.6 28.032Z" fill="#9E0B0F"/>
<path d="M142.439 28.032V28.012C142.439 26.16 143.771 24.657 145.548 24.657C147.325 24.657 148.642 26.142 148.642 27.995V28.013C148.642 29.867 147.309 31.369 145.533 31.369C143.755 31.369 142.439 29.885 142.439 28.032ZM147.014 28.032V28.012C147.014 27.081 146.412 26.27 145.534 26.27C144.661 26.27 144.077 27.062 144.077 27.994V28.012C144.077 28.943 144.678 29.754 145.55 29.754C146.43 29.754 147.014 28.963 147.014 28.032Z" fill="#9E0B0F"/>
<path d="M149.726 28.41V24.786H151.348V28.372C151.348 29.303 151.768 29.746 152.41 29.746C153.052 29.746 153.472 29.322 153.472 28.419V24.787H155.093V28.364C155.093 30.447 154.03 31.361 152.394 31.361C150.755 31.36 149.726 30.429 149.726 28.41Z" fill="#9E0B0F"/>
<path d="M156.363 24.787H157.853L160.222 28.198V24.787H161.802V31.241H160.404L157.943 27.7V31.241H156.363V24.787Z" fill="#9E0B0F"/>
<path d="M164.557 26.354H162.829V24.786H167.881V26.354H166.152V31.24H164.556V26.354H164.557Z" fill="#9E0B0F"/>
<path d="M169.747 24.74H171.285L173.737 31.24H172.026L171.606 30.088H169.384L168.973 31.24H167.294L169.747 24.74ZM171.146 28.694L170.504 26.86L169.854 28.694H171.146Z" fill="#9E0B0F"/>
<path d="M174.459 24.787H175.947L178.317 28.198V24.787H179.897V31.241H178.499L176.04 27.7V31.241H174.459V24.787Z" fill="#9E0B0F"/>
<path d="M182.651 26.354H180.923V24.786H185.975V26.354H184.247V31.24H182.65V26.354H182.651Z" fill="#9E0B0F"/>
<path d="M186.401 30.281L187.289 29.09C187.858 29.598 188.491 29.866 189.158 29.866C189.586 29.866 189.816 29.701 189.816 29.424V29.405C189.816 29.139 189.626 28.991 188.845 28.788C187.618 28.474 186.672 28.088 186.672 26.761V26.742C186.672 25.544 187.52 24.678 188.901 24.678C189.88 24.678 190.645 24.971 191.271 25.533L190.472 26.797C189.946 26.382 189.37 26.162 188.861 26.162C188.473 26.162 188.284 26.346 188.284 26.576V26.596C188.284 26.889 188.482 27.019 189.28 27.222C190.605 27.544 191.427 28.024 191.427 29.232V29.25C191.427 30.569 190.497 31.352 189.099 31.352C188.08 31.351 187.108 30.991 186.401 30.281Z" fill="#9E0B0F"/>
<path d="M124.639 20.135V20.112C124.639 17.861 126.279 16.095 128.493 16.095C129.986 16.095 130.947 16.757 131.594 17.706L130.07 18.954C129.653 18.402 129.174 18.049 128.473 18.049C127.45 18.049 126.729 18.966 126.729 20.091V20.112C126.729 21.272 127.45 22.177 128.473 22.177C129.235 22.177 129.685 21.802 130.122 21.239L131.647 22.387C130.958 23.391 130.028 24.131 128.409 24.131C126.32 24.131 124.639 22.442 124.639 20.135Z" fill="#9E0B0F"/>
<path d="M132.515 16.249H134.54V19.141H137.141V16.249H139.166V23.977H137.141V21.04H134.54V23.977H132.515V16.249Z" fill="#9E0B0F"/>
<path d="M142.988 16.194H144.941L148.053 23.977H145.881L145.348 22.596H142.528L142.007 23.977H139.876L142.988 16.194ZM144.764 20.929L143.95 18.733L143.125 20.929H144.764Z" fill="#9E0B0F"/>
<path d="M148.765 16.249H152.221C153.337 16.249 154.111 16.558 154.603 17.088C155.029 17.529 155.249 18.126 155.249 18.888V18.91C155.249 20.091 154.654 20.875 153.745 21.282L155.489 23.977H153.15L151.677 21.636H150.79V23.977H148.764V16.249H148.765ZM152.127 19.958C152.815 19.958 153.213 19.604 153.213 19.042V19.02C153.213 18.413 152.795 18.103 152.116 18.103H150.791V19.958H152.127Z" fill="#9E0B0F"/>
<path d="M158.058 18.125H155.866V16.249H162.278V18.125H160.085V23.977H158.059V18.125H158.058Z" fill="#9E0B0F"/>
<path d="M163.165 16.249H169.044V18.07H165.171V19.24H168.681V20.928H165.171V22.155H169.098V23.976H163.165V16.249Z" fill="#9E0B0F"/>
<path d="M170.131 16.249H173.588C174.705 16.249 175.479 16.558 175.969 17.088C176.398 17.529 176.617 18.126 176.617 18.888V18.91C176.617 20.091 176.021 20.875 175.113 21.282L176.856 23.977H174.517L173.044 21.636H172.156V23.977H170.13V16.249H170.131ZM173.494 19.958C174.182 19.958 174.582 19.604 174.582 19.042V19.02C174.582 18.413 174.161 18.103 173.484 18.103H172.157V19.958H173.494Z" fill="#9E0B0F"/>
<path d="M177.64 16.249H183.52V18.07H179.646V19.24H183.155V20.928H179.646V22.155H183.573V23.976H177.64V16.249Z" fill="#9E0B0F"/>
<path d="M184.606 16.249H187.424C190.035 16.249 191.55 17.838 191.55 20.069V20.09C191.55 22.32 190.015 23.977 187.383 23.977H184.606V16.249ZM187.457 22.079C188.668 22.079 189.473 21.371 189.473 20.124V20.102C189.473 18.866 188.668 18.148 187.457 18.148H186.632V22.079H187.457Z" fill="#9E0B0F"/>
<path d="M125.771 10.799H124.457V10.51V10.218H127.612V10.51V10.799H126.298V15.061H126.034H125.771V10.799Z" fill="#4D4D4F"/>
<path d="M128.106 10.219H128.368H128.633V12.206H130.662V10.219H130.924H131.189V15.061H130.926H130.662V12.786H128.633V15.061H128.37H128.106V10.219Z" fill="#4D4D4F"/>
<path d="M132.065 15.061V10.219H134.91V10.511V10.8H132.593V12.279H134.708V12.57V12.86H132.593V14.484H134.939V14.773V15.063H132.065V15.061Z" fill="#4D4D4F"/>
<path d="M137.211 10.219H137.473H137.738V15.061H137.475H137.211V10.219Z" fill="#4D4D4F"/>
<path d="M139.145 15.061H138.89H138.636V10.219H138.951H139.268L141.214 14.155V10.219H141.468H141.723V15.061H141.434H141.147L139.144 11.112V15.061H139.145Z" fill="#4D4D4F"/>
<path d="M144.917 11.623C144.894 11.318 144.799 11.082 144.627 10.916C144.456 10.751 144.229 10.667 143.941 10.667C143.645 10.667 143.42 10.738 143.266 10.881C143.112 11.024 143.036 11.232 143.036 11.507C143.036 11.693 143.088 11.833 143.19 11.925C143.291 12.017 143.499 12.109 143.806 12.199L144.483 12.399C144.847 12.507 145.105 12.666 145.261 12.877C145.416 13.085 145.495 13.381 145.495 13.763C145.495 14.203 145.36 14.551 145.093 14.807C144.825 15.064 144.464 15.192 144.008 15.192C143.499 15.192 143.102 15.044 142.816 14.748C142.537 14.456 142.399 14.056 142.399 13.549V13.512H142.882C142.891 13.864 142.993 14.136 143.19 14.326C143.385 14.517 143.658 14.612 144.008 14.612C144.329 14.612 144.576 14.543 144.742 14.405C144.91 14.266 144.994 14.063 144.994 13.795C144.994 13.563 144.938 13.391 144.829 13.279C144.719 13.168 144.499 13.065 144.167 12.966L143.488 12.766C143.145 12.664 142.901 12.524 142.756 12.344C142.611 12.164 142.536 11.915 142.536 11.596C142.536 11.132 142.664 10.765 142.917 10.495C143.169 10.223 143.511 10.087 143.94 10.087C144.378 10.087 144.725 10.224 144.985 10.496C145.243 10.768 145.382 11.143 145.399 11.622H144.917V11.623Z" fill="#4D4D4F"/>
<path d="M147.14 10.799H145.826V10.51V10.218H148.981V10.51V10.799H147.668V15.061H147.406H147.14V10.799Z" fill="#4D4D4F"/>
<path d="M149.55 10.219H149.811H150.077V15.061H149.815H149.55V10.219Z" fill="#4D4D4F"/>
<path d="M151.955 10.799H150.639V10.51V10.218H153.795V10.51V10.799H152.48V15.061H152.219H151.955V10.799Z" fill="#4D4D4F"/>
<path d="M157.36 13.286C157.36 13.883 157.225 14.35 156.956 14.687C156.687 15.024 156.31 15.192 155.831 15.192C155.333 15.192 154.952 15.03 154.691 14.707C154.43 14.383 154.3 13.909 154.3 13.286V10.219H154.562H154.827V13.237C154.827 13.687 154.912 14.029 155.083 14.263C155.255 14.497 155.503 14.614 155.831 14.614C156.16 14.614 156.409 14.497 156.579 14.263C156.75 14.029 156.834 13.687 156.834 13.237V10.219H157.097H157.361V13.286H157.36Z" fill="#4D4D4F"/>
<path d="M159.176 10.799H157.862V10.51V10.218H161.016V10.51V10.799H159.703V15.061H159.44H159.176V10.799Z" fill="#4D4D4F"/>
<path d="M161.559 15.061V10.219H164.403V10.511V10.8H162.086V12.279H164.202V12.57V12.86H162.086V14.484H164.433V14.773V15.063H161.559V15.061Z" fill="#4D4D4F"/>
<path d="M166.946 14.49C166.597 14.022 166.423 13.407 166.423 12.644C166.423 11.88 166.598 11.263 166.946 10.793C167.296 10.323 167.752 10.088 168.316 10.088C168.884 10.088 169.341 10.323 169.691 10.793C170.039 11.263 170.212 11.88 170.212 12.644C170.212 13.406 170.038 14.021 169.691 14.49C169.341 14.959 168.884 15.193 168.316 15.193C167.752 15.193 167.296 14.959 166.946 14.49ZM169.298 14.071C169.547 13.708 169.671 13.233 169.671 12.644C169.671 12.054 169.547 11.576 169.298 11.214C169.049 10.85 168.722 10.668 168.317 10.668C167.914 10.668 167.587 10.85 167.338 11.214C167.09 11.576 166.965 12.054 166.965 12.644C166.965 13.232 167.09 13.708 167.338 14.071C167.586 14.432 167.913 14.613 168.317 14.613C168.722 14.613 169.049 14.432 169.298 14.071Z" fill="#4D4D4F"/>
<path d="M170.89 15.061V10.219H173.583V10.511V10.8H171.416V12.279H173.313V12.57V12.86H171.416V15.063H171.154H170.89V15.061Z" fill="#4D4D4F"/>
<path d="M2.42676 60.084C1.75618 59.7259 1.24837 59.2165 0.90332 58.5557C0.558268 57.8949 0.385742 57.1673 0.385742 56.373C0.385742 55.582 0.558268 54.8577 0.90332 54.2002C1.24837 53.5426 1.75618 53.0348 2.42676 52.6768L2.76855 53.1846C2.23796 53.5264 1.84082 53.9723 1.57715 54.5225C1.31348 55.0726 1.18164 55.6927 1.18164 56.3828C1.18164 57.0697 1.31348 57.6882 1.57715 58.2383C1.84082 58.7852 2.23796 59.2311 2.76855 59.5762L2.42676 60.084ZM6.57695 58.2676H9.52129V59H5.77617V53.165H9.46758V53.9023H6.57695V55.6846H9.15508V56.417H6.57695V58.2676ZM11.9943 59.127C11.3693 59.127 10.8534 59.0326 10.4465 58.8438V58.082C10.9445 58.3229 11.4605 58.4434 11.9943 58.4434C12.3557 58.4434 12.6226 58.3913 12.7951 58.2871C12.9676 58.1829 13.0539 58.0202 13.0539 57.7988C13.0539 57.6035 12.9774 57.457 12.8244 57.3594C12.6747 57.2617 12.398 57.1803 11.9943 57.1152C11.454 57.0273 11.0633 56.8825 10.8225 56.6807C10.5816 56.4788 10.4611 56.1908 10.4611 55.8164C10.4611 55.3997 10.6141 55.0758 10.9201 54.8447C11.2261 54.6104 11.6558 54.4932 12.2092 54.4932C12.7723 54.4932 13.2313 54.5615 13.5861 54.6982V55.4355C13.1337 55.2663 12.673 55.1816 12.2043 55.1816C11.8755 55.1816 11.6314 55.2272 11.4719 55.3184C11.3156 55.4095 11.2375 55.5511 11.2375 55.7432C11.2375 55.9222 11.3173 56.0573 11.4768 56.1484C11.6395 56.2363 11.9504 56.3177 12.4094 56.3926C12.9074 56.474 13.2688 56.6237 13.4934 56.8418C13.7212 57.0566 13.8352 57.3594 13.8352 57.75C13.8352 58.1862 13.674 58.5247 13.3518 58.7656C13.0295 59.0065 12.577 59.127 11.9943 59.127ZM16.8404 58.4092C17.1529 58.4092 17.4589 58.3473 17.7584 58.2236V58.873C17.4068 59.0195 17.0097 59.0928 16.567 59.0928C16.0787 59.0928 15.7206 58.9642 15.4928 58.707C15.2649 58.4466 15.151 58.0413 15.151 57.4912V55.3477H14.4234V54.625H15.1559L15.3756 53.5654H15.9322V54.625H17.6656V55.3477H15.9322V57.4326C15.9322 57.7874 15.999 58.0397 16.1324 58.1895C16.2691 58.3359 16.5051 58.4092 16.8404 58.4092ZM20.124 54.4932C20.7783 54.4932 21.2536 54.6396 21.5498 54.9326C21.846 55.2223 21.9941 55.6732 21.9941 56.2852V59H21.3203L21.2764 58.5898C20.8695 58.9479 20.3633 59.127 19.7578 59.127C19.2956 59.127 18.9375 59.013 18.6836 58.7852C18.4329 58.5573 18.3076 58.235 18.3076 57.8184C18.3076 57.4049 18.4525 57.0778 18.7422 56.8369C19.0319 56.596 19.4323 56.4756 19.9434 56.4756C20.3796 56.4756 20.8011 56.5423 21.208 56.6758V56.2314C21.208 55.8831 21.1169 55.626 20.9346 55.46C20.7555 55.2907 20.4772 55.2061 20.0996 55.2061C19.569 55.2061 19.1003 55.3037 18.6934 55.499V54.7666C19.1491 54.5843 19.626 54.4932 20.124 54.4932ZM19.9531 58.4727C20.4512 58.4727 20.8695 58.2985 21.208 57.9502V57.2812C20.8109 57.1543 20.4365 57.0908 20.085 57.0908C19.4307 57.0908 19.1035 57.3252 19.1035 57.7939C19.1035 58.2464 19.3867 58.4727 19.9531 58.4727ZM25.6 54.4932C26.1729 54.4932 26.6189 54.6868 26.9379 55.0742C27.2569 55.4583 27.4164 56.0052 27.4164 56.7148C27.4164 57.444 27.2276 58.0283 26.85 58.4678C26.4724 58.9072 25.9255 59.127 25.2094 59.127C24.4965 59.127 23.8829 59.0342 23.3686 58.8486V52.75H24.1498V55.084C24.5144 54.6901 24.9978 54.4932 25.6 54.4932ZM25.1947 58.4434C25.683 58.4434 26.0427 58.2936 26.2738 57.9941C26.5082 57.6947 26.6254 57.2796 26.6254 56.749C26.6254 56.2542 26.5196 55.8685 26.308 55.5918C26.0964 55.3151 25.8018 55.1768 25.4242 55.1768C25.1703 55.1768 24.9311 55.237 24.7064 55.3574C24.4818 55.4746 24.2963 55.6243 24.1498 55.8066V58.3164C24.459 58.401 24.8074 58.4434 25.1947 58.4434ZM28.576 59V52.75H29.3572V59H28.576ZM31.1857 53.7021C31.0295 53.7021 30.8977 53.6501 30.7902 53.5459C30.6861 53.4417 30.634 53.3066 30.634 53.1406C30.634 52.9714 30.6861 52.8346 30.7902 52.7305C30.8977 52.6263 31.0295 52.5742 31.1857 52.5742C31.3452 52.5742 31.4755 52.6263 31.5764 52.7305C31.6805 52.8346 31.7326 52.9714 31.7326 53.1406C31.7326 53.3099 31.6805 53.4466 31.5764 53.5508C31.4755 53.6517 31.3452 53.7021 31.1857 53.7021ZM30.7951 59V54.625H31.5764V59H30.7951ZM34.3033 59.127C33.6783 59.127 33.1624 59.0326 32.7555 58.8438V58.082C33.2535 58.3229 33.7695 58.4434 34.3033 58.4434C34.6646 58.4434 34.9316 58.3913 35.1041 58.2871C35.2766 58.1829 35.3629 58.0202 35.3629 57.7988C35.3629 57.6035 35.2864 57.457 35.1334 57.3594C34.9837 57.2617 34.707 57.1803 34.3033 57.1152C33.763 57.0273 33.3723 56.8825 33.1314 56.6807C32.8906 56.4788 32.7701 56.1908 32.7701 55.8164C32.7701 55.3997 32.9231 55.0758 33.2291 54.8447C33.5351 54.6104 33.9648 54.4932 34.5182 54.4932C35.0813 54.4932 35.5403 54.5615 35.8951 54.6982V55.4355C35.4426 55.2663 34.982 55.1816 34.5133 55.1816C34.1845 55.1816 33.9404 55.2272 33.7809 55.3184C33.6246 55.4095 33.5465 55.5511 33.5465 55.7432C33.5465 55.9222 33.6262 56.0573 33.7857 56.1484C33.9485 56.2363 34.2594 56.3177 34.7184 56.3926C35.2164 56.474 35.5777 56.6237 35.8023 56.8418C36.0302 57.0566 36.1441 57.3594 36.1441 57.75C36.1441 58.1862 35.983 58.5247 35.6607 58.7656C35.3385 59.0065 34.886 59.127 34.3033 59.127ZM39.4326 54.4932C40.5654 54.4932 41.1318 55.0954 41.1318 56.2998V59H40.3506V56.29C40.3506 55.9222 40.2611 55.6455 40.082 55.46C39.903 55.2712 39.6393 55.1768 39.291 55.1768C38.7832 55.1768 38.3584 55.3867 38.0166 55.8066V59H37.2354V52.75H38.0166V55.0645C38.4072 54.6836 38.8792 54.4932 39.4326 54.4932ZM44.3178 54.4932C44.9298 54.4932 45.3985 54.6771 45.724 55.0449C46.0495 55.4095 46.2123 55.9466 46.2123 56.6562V57.0762H43.0336C43.1215 57.9746 43.6407 58.4238 44.5912 58.4238C45.0893 58.4238 45.5515 58.3294 45.9779 58.1406V58.8682C45.5027 59.0407 44.9997 59.127 44.4691 59.127C43.7465 59.127 43.1931 58.9268 42.809 58.5264C42.4281 58.1227 42.2377 57.5563 42.2377 56.8271C42.2377 56.124 42.4232 55.5592 42.7943 55.1328C43.1687 54.7064 43.6765 54.4932 44.3178 54.4932ZM44.3031 55.1768C43.9646 55.1768 43.683 55.2858 43.4584 55.5039C43.2338 55.7188 43.0954 56.0264 43.0434 56.4268H45.4262C45.3839 55.5934 45.0095 55.1768 44.3031 55.1768ZM50.3455 52.75H51.1316V59H50.4529L50.3943 58.4922C50.2218 58.694 50.007 58.8503 49.7498 58.9609C49.4959 59.0716 49.2192 59.127 48.9197 59.127C48.3208 59.127 47.8634 58.9382 47.5477 58.5605C47.2352 58.1829 47.0789 57.6182 47.0789 56.8662C47.0789 56.1338 47.2726 55.556 47.66 55.1328C48.0506 54.7064 48.5828 54.4932 49.2566 54.4932C49.6798 54.4932 50.0428 54.542 50.3455 54.6396V52.75ZM49.0564 58.4434C49.5643 58.4434 49.9939 58.2285 50.3455 57.7988V55.3428C50.02 55.2321 49.6652 55.1768 49.2811 55.1768C48.8286 55.1768 48.4803 55.3184 48.2361 55.6016C47.992 55.8815 47.8699 56.29 47.8699 56.8271C47.8699 57.3577 47.9708 57.7598 48.1727 58.0332C48.3745 58.3066 48.6691 58.4434 49.0564 58.4434ZM56.9176 54.4932C57.4905 54.4932 57.9365 54.6868 58.2555 55.0742C58.5745 55.4583 58.734 56.0052 58.734 56.7148C58.734 57.444 58.5452 58.0283 58.1676 58.4678C57.79 58.9072 57.2431 59.127 56.527 59.127C55.8141 59.127 55.2005 59.0342 54.6861 58.8486V52.75H55.4674V55.084C55.832 54.6901 56.3154 54.4932 56.9176 54.4932ZM56.5123 58.4434C57.0006 58.4434 57.3603 58.2936 57.5914 57.9941C57.8258 57.6947 57.943 57.2796 57.943 56.749C57.943 56.2542 57.8372 55.8685 57.6256 55.5918C57.414 55.3151 57.1194 55.1768 56.7418 55.1768C56.4879 55.1768 56.2486 55.237 56.024 55.3574C55.7994 55.4746 55.6139 55.6243 55.4674 55.8066V58.3164C55.7766 58.401 56.1249 58.4434 56.5123 58.4434ZM62.8623 54.625H63.7119L61.8955 58.9854L61.2754 60.582H60.4746L61.1338 58.9854L59.2588 54.625H60.1768L61.5439 58.1016L62.8623 54.625ZM68.4822 58.4092C68.7947 58.4092 69.1007 58.3473 69.4002 58.2236V58.873C69.0486 59.0195 68.6515 59.0928 68.2088 59.0928C67.7205 59.0928 67.3624 58.9642 67.1346 58.707C66.9067 58.4466 66.7928 58.0413 66.7928 57.4912V55.3477H66.0652V54.625H66.7977L67.0174 53.5654H67.574V54.625H69.3074V55.3477H67.574V57.4326C67.574 57.7874 67.6408 58.0397 67.7742 58.1895C67.9109 58.3359 68.1469 58.4092 68.4822 58.4092ZM72.5178 54.4932C73.6506 54.4932 74.217 55.0954 74.217 56.2998V59H73.4357V56.29C73.4357 55.9222 73.3462 55.6455 73.1672 55.46C72.9882 55.2712 72.7245 55.1768 72.3762 55.1768C71.8684 55.1768 71.4436 55.3867 71.1018 55.8066V59H70.3205V52.75H71.1018V55.0645C71.4924 54.6836 71.9644 54.4932 72.5178 54.4932ZM77.4029 54.4932C78.0149 54.4932 78.4837 54.6771 78.8092 55.0449C79.1347 55.4095 79.2975 55.9466 79.2975 56.6562V57.0762H76.1188C76.2066 57.9746 76.7258 58.4238 77.6764 58.4238C78.1744 58.4238 78.6367 58.3294 79.0631 58.1406V58.8682C78.5878 59.0407 78.0849 59.127 77.5543 59.127C76.8316 59.127 76.2783 58.9268 75.8941 58.5264C75.5133 58.1227 75.3229 57.5563 75.3229 56.8271C75.3229 56.124 75.5084 55.5592 75.8795 55.1328C76.2538 54.7064 76.7617 54.4932 77.4029 54.4932ZM77.3883 55.1768C77.0497 55.1768 76.7682 55.2858 76.5436 55.5039C76.3189 55.7188 76.1806 56.0264 76.1285 56.4268H78.5113C78.469 55.5934 78.0947 55.1768 77.3883 55.1768ZM85.0395 53.165C85.7198 53.165 86.2455 53.3262 86.6166 53.6484C86.9877 53.9707 87.1732 54.4622 87.1732 55.123C87.1732 55.7969 86.9877 56.2982 86.6166 56.627C86.2455 56.9525 85.7198 57.1152 85.0395 57.1152H83.4867V59H82.6859V53.165H85.0395ZM85.0395 56.373C85.4529 56.373 85.7751 56.2721 86.0062 56.0703C86.2374 55.8685 86.3529 55.5527 86.3529 55.123C86.3529 54.3092 85.9151 53.9023 85.0395 53.9023H83.4867V56.373H85.0395ZM90.3348 54.4932C90.491 54.4932 90.6196 54.5094 90.7205 54.542V55.2988C90.5903 55.2565 90.434 55.2354 90.2518 55.2354C89.7472 55.2354 89.3338 55.4844 89.0115 55.9824V59H88.2303V54.625H88.9041L88.9871 55.1768C89.3322 54.721 89.7814 54.4932 90.3348 54.4932ZM93.3107 54.4932C93.9227 54.4932 94.3915 54.6771 94.717 55.0449C95.0425 55.4095 95.2053 55.9466 95.2053 56.6562V57.0762H92.0266C92.1145 57.9746 92.6337 58.4238 93.5842 58.4238C94.0822 58.4238 94.5445 58.3294 94.9709 58.1406V58.8682C94.4956 59.0407 93.9927 59.127 93.4621 59.127C92.7395 59.127 92.1861 58.9268 91.802 58.5264C91.4211 58.1227 91.2307 57.5563 91.2307 56.8271C91.2307 56.124 91.4162 55.5592 91.7873 55.1328C92.1617 54.7064 92.6695 54.4932 93.3107 54.4932ZM93.2961 55.1768C92.9576 55.1768 92.676 55.2858 92.4514 55.5039C92.2268 55.7188 92.0884 56.0264 92.0363 56.4268H94.4191C94.3768 55.5934 94.0025 55.1768 93.2961 55.1768ZM97.6393 59.127C97.0143 59.127 96.4983 59.0326 96.0914 58.8438V58.082C96.5895 58.3229 97.1054 58.4434 97.6393 58.4434C98.0006 58.4434 98.2675 58.3913 98.44 58.2871C98.6126 58.1829 98.6988 58.0202 98.6988 57.7988C98.6988 57.6035 98.6223 57.457 98.4693 57.3594C98.3196 57.2617 98.0429 57.1803 97.6393 57.1152C97.0989 57.0273 96.7083 56.8825 96.4674 56.6807C96.2265 56.4788 96.1061 56.1908 96.1061 55.8164C96.1061 55.3997 96.2591 55.0758 96.565 54.8447C96.871 54.6104 97.3007 54.4932 97.8541 54.4932C98.4173 54.4932 98.8762 54.5615 99.2311 54.6982V55.4355C98.7786 55.2663 98.318 55.1816 97.8492 55.1816C97.5204 55.1816 97.2763 55.2272 97.1168 55.3184C96.9605 55.4095 96.8824 55.5511 96.8824 55.7432C96.8824 55.9222 96.9622 56.0573 97.1217 56.1484C97.2844 56.2363 97.5953 56.3177 98.0543 56.3926C98.5523 56.474 98.9137 56.6237 99.1383 56.8418C99.3661 57.0566 99.4801 57.3594 99.4801 57.75C99.4801 58.1862 99.3189 58.5247 98.9967 58.7656C98.6744 59.0065 98.2219 59.127 97.6393 59.127ZM100.962 53.7021C100.806 53.7021 100.674 53.6501 100.566 53.5459C100.462 53.4417 100.41 53.3066 100.41 53.1406C100.41 52.9714 100.462 52.8346 100.566 52.7305C100.674 52.6263 100.806 52.5742 100.962 52.5742C101.121 52.5742 101.252 52.6263 101.353 52.7305C101.457 52.8346 101.509 52.9714 101.509 53.1406C101.509 53.3099 101.457 53.4466 101.353 53.5508C101.252 53.6517 101.121 53.7021 100.962 53.7021ZM100.571 59V54.625H101.353V59H100.571ZM105.779 52.75H106.565V59H105.886L105.828 58.4922C105.655 58.694 105.44 58.8503 105.183 58.9609C104.929 59.0716 104.652 59.127 104.353 59.127C103.754 59.127 103.297 58.9382 102.981 58.5605C102.668 58.1829 102.512 57.6182 102.512 56.8662C102.512 56.1338 102.706 55.556 103.093 55.1328C103.484 54.7064 104.016 54.4932 104.69 54.4932C105.113 54.4932 105.476 54.542 105.779 54.6396V52.75ZM104.49 58.4434C104.997 58.4434 105.427 58.2285 105.779 57.7988V55.3428C105.453 55.2321 105.098 55.1768 104.714 55.1768C104.262 55.1768 103.913 55.3184 103.669 55.6016C103.425 55.8815 103.303 56.29 103.303 56.8271C103.303 57.3577 103.404 57.7598 103.606 58.0332C103.808 58.3066 104.102 58.4434 104.49 58.4434ZM109.795 54.4932C110.407 54.4932 110.875 54.6771 111.201 55.0449C111.526 55.4095 111.689 55.9466 111.689 56.6562V57.0762H108.511C108.598 57.9746 109.118 58.4238 110.068 58.4238C110.566 58.4238 111.028 58.3294 111.455 58.1406V58.8682C110.98 59.0407 110.477 59.127 109.946 59.127C109.223 59.127 108.67 58.9268 108.286 58.5264C107.905 58.1227 107.715 57.5563 107.715 56.8271C107.715 56.124 107.9 55.5592 108.271 55.1328C108.646 54.7064 109.153 54.4932 109.795 54.4932ZM109.78 55.1768C109.442 55.1768 109.16 55.2858 108.935 55.5039C108.711 55.7188 108.572 56.0264 108.52 56.4268H110.903C110.861 55.5934 110.486 55.1768 109.78 55.1768ZM115.051 54.4932C116.177 54.4932 116.74 55.0954 116.74 56.2998V59H115.959V56.373C115.959 55.5788 115.606 55.1816 114.9 55.1816C114.662 55.1816 114.431 55.2354 114.206 55.3428C113.982 55.4469 113.785 55.6016 113.615 55.8066V59H112.834V54.625H113.508L113.571 55.0938C113.972 54.6934 114.465 54.4932 115.051 54.4932ZM120.004 58.4092C120.317 58.4092 120.623 58.3473 120.922 58.2236V58.873C120.571 59.0195 120.174 59.0928 119.731 59.0928C119.243 59.0928 118.885 58.9642 118.657 58.707C118.429 58.4466 118.315 58.0413 118.315 57.4912V55.3477H117.588V54.625H118.32L118.54 53.5654H119.096V54.625H120.83V55.3477H119.096V57.4326C119.096 57.7874 119.163 58.0397 119.296 58.1895C119.433 58.3359 119.669 58.4092 120.004 58.4092ZM121.599 54.7178C121.804 54.5062 121.957 54.2995 122.058 54.0977C122.162 53.8926 122.214 53.7152 122.214 53.5654H122.175C122.022 53.5654 121.895 53.515 121.794 53.4141C121.693 53.3132 121.643 53.1813 121.643 53.0186C121.643 52.846 121.693 52.7077 121.794 52.6035C121.898 52.4961 122.036 52.4424 122.209 52.4424C122.619 52.4424 122.824 52.7012 122.824 53.2188C122.824 53.7331 122.604 54.2327 122.165 54.7178H121.599ZM124.96 59.127C124.335 59.127 123.819 59.0326 123.412 58.8438V58.082C123.911 58.3229 124.426 58.4434 124.96 58.4434C125.322 58.4434 125.589 58.3913 125.761 58.2871C125.934 58.1829 126.02 58.0202 126.02 57.7988C126.02 57.6035 125.943 57.457 125.79 57.3594C125.641 57.2617 125.364 57.1803 124.96 57.1152C124.42 57.0273 124.029 56.8825 123.788 56.6807C123.548 56.4788 123.427 56.1908 123.427 55.8164C123.427 55.3997 123.58 55.0758 123.886 54.8447C124.192 54.6104 124.622 54.4932 125.175 54.4932C125.738 54.4932 126.197 54.5615 126.552 54.6982V55.4355C126.1 55.2663 125.639 55.1816 125.17 55.1816C124.842 55.1816 124.597 55.2272 124.438 55.3184C124.282 55.4095 124.204 55.5511 124.204 55.7432C124.204 55.9222 124.283 56.0573 124.443 56.1484C124.606 56.2363 124.916 56.3177 125.375 56.3926C125.873 56.474 126.235 56.6237 126.459 56.8418C126.687 57.0566 126.801 57.3594 126.801 57.75C126.801 58.1862 126.64 58.5247 126.318 58.7656C125.996 59.0065 125.543 59.127 124.96 59.127ZM132.572 52.999C133.432 52.999 134.111 53.279 134.609 53.8389C135.107 54.3955 135.356 55.1442 135.356 56.085C135.356 57.0225 135.107 57.7712 134.609 58.3311C134.111 58.8877 133.432 59.166 132.572 59.166C131.71 59.166 131.028 58.8877 130.527 58.3311C130.029 57.7712 129.779 57.0225 129.779 56.085C129.779 55.1475 130.029 54.3988 130.527 53.8389C131.028 53.279 131.71 52.999 132.572 52.999ZM132.572 53.707C131.967 53.707 131.485 53.9219 131.127 54.3516C130.772 54.778 130.595 55.3558 130.595 56.085C130.595 56.8141 130.772 57.3919 131.127 57.8184C131.485 58.2448 131.967 58.458 132.572 58.458C133.175 58.458 133.653 58.2448 134.008 57.8184C134.363 57.3919 134.54 56.8141 134.54 56.085C134.54 55.3525 134.363 54.7731 134.008 54.3467C133.653 53.9202 133.175 53.707 132.572 53.707ZM138.654 54.4932C138.81 54.4932 138.939 54.5094 139.04 54.542V55.2988C138.909 55.2565 138.753 55.2354 138.571 55.2354C138.066 55.2354 137.653 55.4844 137.331 55.9824V59H136.549V54.625H137.223L137.306 55.1768C137.651 54.721 138.101 54.4932 138.654 54.4932ZM142.821 52.75H143.607V59H142.929L142.87 58.4922C142.698 58.694 142.483 58.8503 142.226 58.9609C141.972 59.0716 141.695 59.127 141.396 59.127C140.797 59.127 140.339 58.9382 140.023 58.5605C139.711 58.1829 139.555 57.6182 139.555 56.8662C139.555 56.1338 139.748 55.556 140.136 55.1328C140.526 54.7064 141.059 54.4932 141.732 54.4932C142.156 54.4932 142.519 54.542 142.821 54.6396V52.75ZM141.532 58.4434C142.04 58.4434 142.47 58.2285 142.821 57.7988V55.3428C142.496 55.2321 142.141 55.1768 141.757 55.1768C141.304 55.1768 140.956 55.3184 140.712 55.6016C140.468 55.8815 140.346 56.29 140.346 56.8271C140.346 57.3577 140.447 57.7598 140.648 58.0332C140.85 58.3066 141.145 58.4434 141.532 58.4434ZM146.837 54.4932C147.449 54.4932 147.918 54.6771 148.244 55.0449C148.569 55.4095 148.732 55.9466 148.732 56.6562V57.0762H145.553C145.641 57.9746 146.16 58.4238 147.111 58.4238C147.609 58.4238 148.071 58.3294 148.497 58.1406V58.8682C148.022 59.0407 147.519 59.127 146.989 59.127C146.266 59.127 145.713 58.9268 145.329 58.5264C144.948 58.1227 144.757 57.5563 144.757 56.8271C144.757 56.124 144.943 55.5592 145.314 55.1328C145.688 54.7064 146.196 54.4932 146.837 54.4932ZM146.823 55.1768C146.484 55.1768 146.203 55.2858 145.978 55.5039C145.753 55.7188 145.615 56.0264 145.563 56.4268H147.946C147.903 55.5934 147.529 55.1768 146.823 55.1768ZM151.981 54.4932C152.137 54.4932 152.266 54.5094 152.367 54.542V55.2988C152.237 55.2565 152.081 55.2354 151.898 55.2354C151.394 55.2354 150.98 55.4844 150.658 55.9824V59H149.877V54.625H150.551L150.634 55.1768C150.979 54.721 151.428 54.4932 151.981 54.4932ZM159.305 53.165H160.072V59H159.344L156.087 54.4346C156.091 54.4899 156.092 54.6527 156.092 54.9229V59H155.326V53.165H156.053L159.31 57.7354C159.307 57.68 159.305 57.5156 159.305 57.2422V53.165ZM163.434 59.127C162.763 59.127 162.232 58.9202 161.842 58.5068C161.454 58.0934 161.261 57.5335 161.261 56.8271C161.261 56.1175 161.459 55.5511 161.856 55.1279C162.254 54.7048 162.791 54.4932 163.468 54.4932C164.138 54.4932 164.667 54.6999 165.055 55.1133C165.442 55.5267 165.636 56.0866 165.636 56.793C165.636 57.5026 165.437 58.069 165.04 58.4922C164.646 58.9154 164.111 59.127 163.434 59.127ZM163.453 58.4434C163.88 58.4434 164.218 58.2969 164.469 58.0039C164.719 57.7109 164.845 57.3122 164.845 56.8076C164.845 56.2998 164.719 55.901 164.469 55.6113C164.218 55.3216 163.88 55.1768 163.453 55.1768C163.027 55.1768 162.687 55.3232 162.433 55.6162C162.179 55.9059 162.052 56.3031 162.052 56.8076C162.052 57.3154 162.177 57.7158 162.428 58.0088C162.682 58.2985 163.023 58.4434 163.453 58.4434ZM166.996 59.127C166.826 59.127 166.69 59.0765 166.585 58.9756C166.481 58.8747 166.429 58.738 166.429 58.5654C166.429 58.3896 166.481 58.2513 166.585 58.1504C166.69 58.0495 166.826 57.999 166.996 57.999C167.168 57.999 167.303 58.0495 167.401 58.1504C167.502 58.2513 167.552 58.3896 167.552 58.5654C167.552 58.7412 167.502 58.8796 167.401 58.9805C167.303 59.0781 167.168 59.127 166.996 59.127ZM171.8 58.2773H174.656V59H170.609V58.3262L172.435 56.7148C172.633 56.5391 172.793 56.3877 172.913 56.2607C173.037 56.1338 173.153 55.9938 173.26 55.8408C173.367 55.6846 173.446 55.5267 173.494 55.3672C173.543 55.2044 173.568 55.027 173.568 54.835C173.568 54.4834 173.449 54.2116 173.211 54.0195C172.977 53.8242 172.648 53.7266 172.225 53.7266C171.658 53.7266 171.125 53.8421 170.623 54.0732V53.3311C171.131 53.1097 171.715 52.999 172.376 52.999C173.008 52.999 173.502 53.1536 173.861 53.4629C174.219 53.7721 174.398 54.2067 174.398 54.7666C174.398 55.001 174.37 55.224 174.315 55.4355C174.259 55.6439 174.191 55.8278 174.11 55.9873C174.028 56.1436 173.911 56.3112 173.758 56.4902C173.605 56.666 173.463 56.8158 173.333 56.9395C173.203 57.0599 173.03 57.2129 172.816 57.3984L171.8 58.2773ZM179.783 59.127C179.113 59.127 178.582 58.9202 178.191 58.5068C177.804 58.0934 177.61 57.5335 177.61 56.8271C177.61 56.1175 177.809 55.5511 178.206 55.1279C178.603 54.7048 179.14 54.4932 179.817 54.4932C180.488 54.4932 181.017 54.6999 181.404 55.1133C181.792 55.5267 181.985 56.0866 181.985 56.793C181.985 57.5026 181.787 58.069 181.39 58.4922C180.996 58.9154 180.46 59.127 179.783 59.127ZM179.803 58.4434C180.229 58.4434 180.568 58.2969 180.818 58.0039C181.069 57.7109 181.194 57.3122 181.194 56.8076C181.194 56.2998 181.069 55.901 180.818 55.6113C180.568 55.3216 180.229 55.1768 179.803 55.1768C179.376 55.1768 179.036 55.3232 178.782 55.6162C178.528 55.9059 178.401 56.3031 178.401 56.8076C178.401 57.3154 178.527 57.7158 178.777 58.0088C179.031 58.2985 179.373 58.4434 179.803 58.4434ZM184.942 53.3311C184.382 53.3311 184.102 53.6289 184.102 54.2246V54.625H185.508V55.3477H184.102V59H183.316V55.3477H182.676V54.625H183.316V54.3076C183.316 53.7803 183.449 53.3685 183.716 53.0723C183.986 52.7728 184.374 52.623 184.878 52.623C185.194 52.623 185.471 52.6702 185.708 52.7646V53.4727C185.435 53.3783 185.179 53.3311 184.942 53.3311ZM189.961 58.2578H190.952V59H188.023V58.2578H189.155V54.0586L187.964 54.4346V53.668L189.37 53.165H189.961V58.2578ZM193.699 52.999C194.474 52.999 195.061 53.2562 195.462 53.7705C195.862 54.2816 196.062 55.0303 196.062 56.0166C196.062 56.4919 196.01 56.9199 195.906 57.3008C195.805 57.6784 195.65 58.0088 195.442 58.292C195.237 58.5719 194.968 58.7884 194.636 58.9414C194.304 59.0911 193.917 59.166 193.474 59.166C192.839 59.166 192.367 59.0879 192.058 58.9316L192.048 58.1846C192.39 58.3571 192.854 58.4434 193.44 58.4434C194.019 58.4434 194.452 58.2676 194.739 57.916C195.025 57.5645 195.19 57.0599 195.232 56.4023C194.734 56.7279 194.169 56.8906 193.538 56.8906C192.906 56.8906 192.421 56.7246 192.083 56.3926C191.747 56.0605 191.58 55.5934 191.58 54.9912C191.58 54.3988 191.77 53.9186 192.151 53.5508C192.535 53.1829 193.051 52.999 193.699 52.999ZM192.405 54.9229C192.405 55.3363 192.511 55.6504 192.722 55.8652C192.934 56.0768 193.237 56.1826 193.63 56.1826C194.226 56.1826 194.76 56.0003 195.232 55.6357C195.141 54.363 194.641 53.7266 193.733 53.7266C193.32 53.7266 192.994 53.8356 192.756 54.0537C192.522 54.2686 192.405 54.5583 192.405 54.9229ZM196.704 53.165H200.913V53.79L198.486 59H197.607L200.015 53.917H196.704V53.165ZM203.967 55.5918C204.521 55.5918 204.96 55.7383 205.286 56.0312C205.611 56.321 205.774 56.7441 205.774 57.3008C205.774 57.8932 205.577 58.3522 205.183 58.6777C204.792 59.0033 204.21 59.166 203.435 59.166C202.693 59.166 202.097 59.0488 201.648 58.8145V58.0332C202.146 58.3066 202.735 58.4434 203.415 58.4434C203.887 58.4434 204.259 58.349 204.529 58.1602C204.802 57.9714 204.939 57.693 204.939 57.3252C204.939 56.6318 204.532 56.2852 203.718 56.2852C203.386 56.2852 203.105 56.3145 202.873 56.373L202.556 55.8408L204.382 53.917H201.682V53.165H205.535V53.7412L203.733 55.6016C203.782 55.5951 203.86 55.5918 203.967 55.5918ZM208.742 52.6768C209.413 53.0348 209.921 53.5443 210.266 54.2051C210.611 54.8626 210.783 55.5885 210.783 56.3828C210.783 57.1738 210.611 57.8997 210.266 58.5605C209.921 59.2181 209.413 59.7259 208.742 60.084L208.401 59.5762C208.928 59.2344 209.323 58.7884 209.587 58.2383C209.851 57.6849 209.983 57.0632 209.983 56.373C209.983 55.6862 209.851 55.0693 209.587 54.5225C209.327 53.9756 208.931 53.5296 208.401 53.1846L208.742 52.6768Z" fill="black"/>
</svg>
